<?xml version="1.0" standalone="no"?>
<!DOCTYPE svg PUBLIC "-//W3C//DTD SVG 20010904//EN"
 "http://www.w3.org/TR/2001/REC-SVG-20010904/DTD/svg10.dtd">
<svg version="1.0" xmlns="http://www.w3.org/2000/svg"
 width="579.000000pt" height="579.000000pt" viewBox="0 0 579.000000 579.000000"
 preserveAspectRatio="xMidYMid meet">
<metadata>
Created by potrace 1.11, written by Peter Selinger 2001-2013
</metadata>
<g transform="translate(0.000000,579.000000) scale(0.100000,-0.100000)"
fill="#000000" stroke="none">
<path d="M3042 5313 c-10 -16 -57 -89 -103 -163 -46 -74 -87 -139 -91 -145 -5
-5 -67 -104 -139 -220 -72 -115 -141 -223 -153 -240 -12 -16 -42 -64 -66 -105
-24 -41 -74 -122 -112 -179 -37 -57 -68 -105 -68 -107 0 -7 -74 -117 -87 -132
-7 -7 -13 -18 -13 -23 0 -5 -8 -22 -19 -37 -27 -41 -171 -266 -225 -354 -26
-42 -54 -79 -62 -82 -8 -3 -13 -10 -9 -16 5 -9 -62 -121 -77 -128 -5 -2 -8 -8
-8 -14 0 -5 -18 -38 -40 -71 -22 -34 -82 -129 -134 -212 -52 -82 -100 -158
-108 -168 -12 -17 -39 -18 -419 -18 l-407 0 2 -342 1 -342 150 -2 c83 -1 161
-2 174 -3 21 0 23 -3 16 -36 -3 -20 -18 -55 -33 -77 -29 -44 -32 -48 -78 -122
-84 -136 -213 -339 -263 -414 -31 -47 -67 -105 -81 -130 -14 -25 -51 -84 -81
-131 -30 -47 -86 -134 -124 -195 -38 -60 -75 -116 -82 -123 -7 -7 -13 -18 -13
-24 0 -5 -22 -42 -49 -81 -26 -40 -85 -132 -131 -205 -45 -73 -88 -139 -96
-147 -17 -17 -18 -52 -1 -57 10 -3 5655 -2 5708 1 27 2 31 31 9 66 -11 18 -20
41 -20 53 0 11 -6 22 -14 25 -8 3 -20 18 -28 34 -25 48 -154 284 -175 318 -7
11 -17 30 -22 42 -6 12 -21 39 -34 60 -13 21 -44 76 -69 123 -25 47 -91 168
-148 270 -56 102 -115 208 -130 235 -15 28 -37 66 -49 85 -11 19 -25 44 -30
55 -5 11 -25 49 -45 83 -20 35 -36 70 -36 78 0 8 -4 14 -10 14 -5 0 -18 17
-28 38 -10 20 -29 55 -41 76 -12 21 -24 52 -26 67 l-4 29 180 0 179 0 0 339 0
340 -377 1 c-208 0 -380 4 -384 8 -12 14 -69 123 -69 133 0 6 -11 25 -24 42
-23 32 -137 234 -236 422 -66 125 -83 154 -114 203 -14 22 -35 62 -47 88 -13
27 -26 51 -30 54 -4 3 -15 22 -25 42 -19 38 -147 270 -164 298 -20 33 -141
253 -195 355 -18 33 -43 78 -57 100 -13 22 -38 67 -54 100 -16 33 -31 62 -34
65 -13 12 -110 195 -110 207 0 7 -4 13 -8 13 -5 0 -15 12 -23 28 -8 15 -38 70
-67 122 -30 52 -60 110 -67 128 -17 39 -28 40 -53 5z"/>
</g>
</svg>
